<svg width="31" height="30" viewBox="0 0 31 30" fill="none" xmlns="http://www.w3.org/2000/svg">
<path d="M17.5826 9.26253L20.6576 7.75002C21.0326 7.56252 21.1326 7.07503 20.8451 6.77503C19.7326 5.55003 18.6076 4.52503 17.7076 3.75003C17.2951 3.40003 16.6826 3.68753 16.6826 4.22503V8.70003C16.6826 9.16253 17.1701 9.46252 17.5826 9.26253Z" fill="#1AAB7B"/>
<path d="M16.6826 24.6749V26.7374C16.6826 27.1124 17.0201 27.4249 17.3951 27.3624C20.8076 26.7999 23.6576 24.5124 25.0076 21.4374C25.2451 20.9124 24.6701 20.3874 24.1451 20.6374L17.0326 24.1249C16.8201 24.2249 16.6826 24.4374 16.6826 24.6749Z" fill="#1AAB7B"/>
<path d="M14.8076 4.20003C14.8076 3.66253 14.1951 3.37503 13.7826 3.71253C10.8326 6.18753 5.59508 11.4 5.62008 17.375C5.62008 22.4 9.29508 26.5625 14.0951 27.3625C14.4701 27.425 14.8076 27.1125 14.8076 26.7375V4.20003Z" fill="#1AAB7B"/>
<path d="M17.5452 15.5876L24.1577 12.8126C24.4952 12.6626 24.6577 12.2751 24.4952 11.9501C24.0327 11.0376 23.4952 10.1501 22.9077 9.32505C22.7327 9.07505 22.4077 9.00005 22.1327 9.12505L17.0202 11.6126C16.8077 11.7126 16.6702 11.9376 16.6702 12.1751V15.0126C16.6827 15.4501 17.1327 15.7626 17.5452 15.5876Z" fill="#1AAB7B"/>
<path d="M25.5326 17.8875C25.7326 17.7875 25.8576 17.6 25.8576 17.3875C25.8576 16.5875 25.7576 15.8 25.5826 15.025C25.4951 14.65 25.0826 14.45 24.7326 14.6L17.0576 17.875C16.8326 17.975 16.6826 18.2 16.6826 18.45V21.2C16.6826 21.6625 17.1701 21.9625 17.5826 21.7625L24.9576 18.175L25.5326 17.8875Z" fill="#1AAB7B"/>
</svg>
