<svg width="31" height="30" viewBox="0 0 31 30" fill="none" xmlns="http://www.w3.org/2000/svg">
<path d="M20.9826 2.5H10.5076C5.95762 2.5 3.24512 5.2125 3.24512 9.7625V20.225C3.24512 24.7875 5.95762 27.5 10.5076 27.5H20.9701C25.5201 27.5 28.2326 24.7875 28.2326 20.2375V9.7625C28.2451 5.2125 25.5326 2.5 20.9826 2.5ZM13.1326 20.2375C13.1326 21.0375 12.4826 21.6875 11.6701 21.6875C10.8701 21.6875 10.2201 21.0375 10.2201 20.2375V16.1625C10.2201 15.3625 10.8701 14.7125 11.6701 14.7125C12.4826 14.7125 13.1326 15.3625 13.1326 16.1625V20.2375ZM21.2701 20.2375C21.2701 21.0375 20.6201 21.6875 19.8201 21.6875C19.0076 21.6875 18.3576 21.0375 18.3576 20.2375V9.7625C18.3576 8.9625 19.0076 8.3125 19.8201 8.3125C20.6201 8.3125 21.2701 8.9625 21.2701 9.7625V20.2375Z" fill="#1AAB7B"/>
</svg>
