<svg width="31" height="30" viewBox="0 0 31 30" fill="none" xmlns="http://www.w3.org/2000/svg">
<path d="M27.0451 16.6L25.8951 15.475L16.2076 25.15L17.3701 26.3125C18.3451 27.2875 19.3576 27.775 20.3576 27.775C21.3576 27.775 22.3701 27.2875 23.3451 26.3125L27.0451 22.6125C29.0326 20.6125 29.0326 18.6 27.0451 16.6Z" fill="#1AAB7B"/>
<path d="M14.1076 3.66255C12.1451 1.70005 10.0826 1.70005 8.12007 3.66255L4.40757 7.36255C2.45757 9.32505 2.45757 11.3875 4.40757 13.35L5.55757 14.5L15.2451 4.81255L14.1076 3.66255Z" fill="#1AAB7B"/>
<path d="M28.0077 4.92499C26.3702 9.01249 22.6327 14.35 19.0702 17.8375C18.5577 14.6125 15.9827 12.0875 12.7327 11.6375C16.2327 8.06249 21.6077 4.27499 25.7077 2.62499C26.4327 2.34999 27.1577 2.56249 27.6077 3.01249C28.0827 3.48749 28.3077 4.19999 28.0077 4.92499Z" fill="#1AAB7B"/>
<path d="M17.9701 18.8625C17.7201 19.075 17.4701 19.2875 17.2201 19.4875L14.9826 21.275C14.9826 21.2375 14.9701 21.1875 14.9701 21.1375C14.7951 19.8 14.1701 18.5625 13.1576 17.55C12.1326 16.525 10.8576 15.9 9.45764 15.725C9.42014 15.725 9.37014 15.7125 9.33264 15.7125L11.1451 13.425C11.3201 13.2 11.5076 12.9875 11.7076 12.7625L12.5576 12.875C15.2451 13.25 17.4076 15.3625 17.8326 18.0375L17.9701 18.8625Z" fill="#1AAB7B"/>
<path d="M13.7826 22.025C13.7826 23.4 13.2576 24.7125 12.2576 25.7C11.4951 26.475 10.4701 27 9.22007 27.15L6.15757 27.4875C4.48257 27.675 3.04507 26.2375 3.23257 24.55L3.57007 21.475C3.87007 18.7375 6.15757 16.9875 8.58257 16.9375C8.82007 16.925 9.08257 16.9375 9.33257 16.9625C10.3951 17.1 11.4201 17.5875 12.2826 18.4375C13.1201 19.275 13.5951 20.2625 13.7326 21.3C13.7576 21.55 13.7826 21.7875 13.7826 22.025Z" fill="#1AAB7B"/>
</svg>
